<?xml version="1.0" encoding="utf-8"?>
<svg viewBox="-12 0 324 200" xmlns="http://www.w3.org/2000/svg">
  <g id="g15224" style="display:inline">
    <g id="g15076" style="display:inline">
      <path style="fill:none;stroke:#000000;stroke-width:0.264583" d="M 10,0 V 200" id="path15018"/>
      <path style="fill:none;stroke:#000000;stroke-width:0.264583" d="M 30 0 L 30 177.344 M 30 195.752 L 30 200" id="path15022"/>
      <path style="fill:none;stroke:#000000;stroke-width:0.264583" d="M 50 0 L 50 177.344 M 50 195.752 L 50 200" id="path15026"/>
      <path style="fill:none;stroke:#000000;stroke-width:0.264583" d="M 70 0 L 70 177.344 M 70 195.752 L 70 200" id="path15030"/>
      <path style="fill:none;stroke:#000000;stroke-width:0.264583" d="M 90,0 V 200" id="path15034"/>
      <path style="fill:none;stroke:#000000;stroke-width:0.264583" d="M 110,0 V 200" id="path15038"/>
      <path style="fill:none;stroke:#000000;stroke-width:0.264583" d="M 130,0 V 200" id="path15042"/>
      <path style="display:inline;fill:#00112b;stroke:#0066ff;stroke-width:0.258;stroke-dasharray:1.548, 0.258;stroke-dashoffset:0;stroke-opacity:1" d="M 160,10 V 200" id="path15048"/>
      <path style="fill:none;stroke:#ff0000;stroke-width:0.265;stroke-dasharray:1.59, 0.265;stroke-dashoffset:0;stroke-opacity:1" d="M 150,0 V 190" id="path15046"/>
      <path style="fill:none;stroke:#000000;stroke-width:0.264583" d="M 180,0 V 200" id="path15052"/>
      <path style="fill:none;stroke:#000000;stroke-width:0.264583" d="M 200,0 V 200" id="path15056"/>
      <path style="fill:none;stroke:#000000;stroke-width:0.264583" d="M 220 0 L 220 182.031 M 220 198.022 L 220 200" id="path15060"/>
      <path style="fill:none;stroke:#000000;stroke-width:0.264583" d="M 240 0 L 240 182.031 M 240 198.022 L 240 200" id="path15064"/>
      <path style="fill:none;stroke:#000000;stroke-width:0.264583" d="M 260 0 L 260 182.031 M 260 198.022 L 260 200" id="path15068"/>
      <path style="fill:none;stroke:#000000;stroke-width:0.264583" d="M 280 0 L 280 182.031 M 280 198.022 L 280 200" id="path15072"/>
      <g aria-label="MIRROR" id="text16399" style="font-size:10.5833px;line-height:1.25;letter-spacing:0px;word-spacing:0px;display:inline;stroke-width:0.264583">
        <path d="m 143.06355,193.62239 h 0.51849 l 0.65629,1.75011 0.65973,-1.75011 h 0.51849 v 2.57176 h -0.33934 v -2.25826 l -0.66318,1.76389 h -0.34968 l -0.66318,-1.76389 v 2.25826 h -0.33762 z" style="font-size:3.52778px;-inkscape-font-specification:'sans-serif, Normal';fill:#ff0000" id="path17403"/>
        <path d="m 146.10729,193.62239 h 0.34796 v 2.57176 h -0.34796 z" style="font-size:3.52778px;-inkscape-font-specification:'sans-serif, Normal';fill:#ff0000" id="path17405"/>
        <path d="m 148.36728,194.98837 q 0.11196,0.0379 0.21704,0.16192 0.10679,0.12402 0.21359,0.34106 l 0.35313,0.7028 h -0.3738 l -0.329,-0.65973 q -0.12747,-0.25839 -0.24805,-0.34279 -0.11886,-0.0844 -0.32556,-0.0844 h -0.37896 v 1.08693 h -0.34796 v -2.57176 h 0.78548 q 0.44098,0 0.65802,0.18431 0.21704,0.18431 0.21704,0.55638 0,0.24288 -0.11369,0.40308 -0.11197,0.1602 -0.32728,0.22221 z m -0.87161,-1.08004 v 0.91295 h 0.43752 q 0.2515,0 0.37896,-0.11541 0.1292,-0.11713 0.1292,-0.34279 0,-0.22565 -0.1292,-0.33934 -0.12746,-0.11541 -0.37896,-0.11541 z" style="font-size:3.52778px;-inkscape-font-specification:'sans-serif, Normal';fill:#ff0000" id="path17407"/>
        <path d="m 150.81846,194.98837 q 0.11197,0.0379 0.21704,0.16192 0.1068,0.12402 0.2136,0.34106 l 0.35312,0.7028 h -0.37379 l -0.32901,-0.65973 q -0.12747,-0.25839 -0.24804,-0.34279 -0.11886,-0.0844 -0.32557,-0.0844 h -0.37896 v 1.08693 h -0.34795 v -2.57176 h 0.78548 q 0.44097,0 0.65801,0.18431 0.21705,0.18431 0.21705,0.55638 0,0.24288 -0.11369,0.40308 -0.11197,0.1602 -0.32729,0.22221 z m -0.87161,-1.08004 v 0.91295 h 0.43753 q 0.25149,0 0.37896,-0.11541 0.12919,-0.11713 0.12919,-0.34279 0,-0.22565 -0.12919,-0.33934 -0.12747,-0.11541 -0.37896,-0.11541 z" style="font-size:3.52778px;-inkscape-font-specification:'sans-serif, Normal';fill:#ff0000" id="path17409"/>
        <path d="m 153.09395,193.85838 q -0.37896,0 -0.60289,0.28249 -0.22221,0.2825 -0.22221,0.76998 0,0.48576 0.22221,0.76826 0.22393,0.2825 0.60289,0.2825 0.37896,0 0.59945,-0.2825 0.22221,-0.2825 0.22221,-0.76826 0,-0.48748 -0.22221,-0.76998 -0.22049,-0.28249 -0.59945,-0.28249 z m 0,-0.2825 q 0.54088,0 0.86472,0.36346 0.32384,0.36173 0.32384,0.97151 0,0.60806 -0.32384,0.97152 -0.32384,0.36174 -0.86472,0.36174 -0.5426,0 -0.86816,-0.36174 -0.32384,-0.36173 -0.32384,-0.97152 0,-0.60978 0.32384,-0.97151 0.32556,-0.36346 0.86816,-0.36346 z" style="font-size:3.52778px;-inkscape-font-specification:'sans-serif, Normal';fill:#ff0000" id="path17411"/>
        <path d="m 156.0464,194.98837 q 0.11196,0.0379 0.21704,0.16192 0.1068,0.12402 0.2136,0.34106 l 0.35312,0.7028 h -0.37379 l -0.32901,-0.65973 q -0.12747,-0.25839 -0.24805,-0.34279 -0.11885,-0.0844 -0.32556,-0.0844 h -0.37896 v 1.08693 h -0.34796 v -2.57176 h 0.78549 q 0.44097,0 0.65801,0.18431 0.21704,0.18431 0.21704,0.55638 0,0.24288 -0.11369,0.40308 -0.11196,0.1602 -0.32728,0.22221 z m -0.87161,-1.08004 v 0.91295 h 0.43753 q 0.25149,0 0.37896,-0.11541 0.12919,-0.11713 0.12919,-0.34279 0,-0.22565 -0.12919,-0.33934 -0.12747,-0.11541 -0.37896,-0.11541 z" style="font-size:3.52778px;-inkscape-font-specification:'sans-serif, Normal';fill:#ff0000" id="path17413"/>
      </g>
      <g aria-label="COPY" id="text16407" style="font-size:10.5833px;line-height:1.25;letter-spacing:0px;word-spacing:0px;display:inline;fill:#0066ff;stroke-width:0.264583">
        <path d="m 157.69645,3.740946 v 0.3669029 q -0.1757,-0.1636422 -0.37552,-0.244602 -0.19809,-0.08096 -0.42202,-0.08096 -0.44097,0 -0.67524,0.2704401 -0.23427,0.2687176 -0.23427,0.7785921 0,0.5081519 0.23427,0.7785921 0.23427,0.2687176 0.67524,0.2687176 0.22393,0 0.42202,-0.08096 0.19982,-0.08096 0.37552,-0.2446019 v 0.3634578 q -0.18259,0.1240235 -0.38757,0.1860353 -0.20326,0.062012 -0.43064,0.062012 -0.58394,0 -0.91984,-0.3565676 -0.3359,-0.3582902 -0.3359,-0.9766852 0,-0.6201176 0.3359,-0.9766852 0.3359,-0.3582902 0.91984,-0.3582902 0.23082,0 0.43408,0.062012 0.20498,0.060289 0.38413,0.1825902 z" style="font-size:3.52778px;-inkscape-font-specification:'sans-serif, Normal'" id="path17394"/>
        <path d="m 159.27775,3.7788421 q -0.37896,0 -0.60289,0.282498 -0.22221,0.282498 -0.22221,0.7699793 0,0.4857588 0.22221,0.7682568 0.22393,0.282498 0.60289,0.282498 0.37896,0 0.59945,-0.282498 0.22221,-0.282498 0.22221,-0.7682568 0,-0.4874813 -0.22221,-0.7699793 -0.22049,-0.282498 -0.59945,-0.282498 z m 0,-0.2824981 q 0.54088,0 0.86472,0.3634578 0.32384,0.3617353 0.32384,0.9715176 0,0.6080598 -0.32384,0.9715176 -0.32384,0.3617352 -0.86472,0.3617352 -0.5426,0 -0.86816,-0.3617352 -0.32384,-0.3617353 -0.32384,-0.9715176 0,-0.6097823 0.32384,-0.9715176 0.32556,-0.3634578 0.86816,-0.3634578 z" style="font-size:3.52778px;-inkscape-font-specification:'sans-serif, Normal'" id="path17396"/>
        <path d="m 161.35859,3.828796 v 0.9663499 h 0.43753 q 0.24288,0 0.37551,-0.1257461 0.13264,-0.1257461 0.13264,-0.3582902 0,-0.2308215 -0.13264,-0.3565676 -0.13263,-0.125746 -0.37551,-0.125746 z m -0.34796,-0.2859431 h 0.78549 q 0.43236,0 0.65284,0.1963705 0.22221,0.1946481 0.22221,0.5718862 0,0.3806833 -0.22221,0.5753314 -0.22048,0.194648 -0.65284,0.194648 h -0.43753 v 1.0335293 h -0.34796 z" style="font-size:3.52778px;-inkscape-font-specification:'sans-serif, Normal'" id="path17398"/>
        <path d="m 162.70734,3.5428529 h 0.3738 l 0.71313,1.057645 0.70797,-1.057645 h 0.37379 l -0.9095,1.3470332 v 1.2247322 h -0.34968 V 4.8898861 Z" style="font-size:3.52778px;-inkscape-font-specification:'sans-serif, Normal'" id="path17400"/>
      </g>
    </g>
    <g id="g15116" style="display:inline">
      <path style="fill:none;stroke:#000000;stroke-width:0.264583" d="M 0,10 H 300" id="path15078"/>
      <path style="fill:none;stroke:#000000;stroke-width:0.264583" d="M 0,30 H 300" id="path15082"/>
      <path style="fill:none;stroke:#000000;stroke-width:0.264583" d="M 0,50 H 300" id="path15086"/>
      <path style="fill:none;stroke:#000000;stroke-width:0.264583" d="M 0,70 H 300" id="path15090"/>
      <path style="fill:none;stroke:#000000;stroke-width:0.264583" d="M 0,90 H 300" id="path15094"/>
      <path style="fill:none;stroke:#000000;stroke-width:0.264583" d="M 0,110 H 300" id="path15098"/>
      <path style="fill:none;stroke:#000000;stroke-width:0.264583" d="M 0,130 H 300" id="path15102"/>
      <path style="fill:none;stroke:#000000;stroke-width:0.264583" d="M 0,150 H 300" id="path15106"/>
      <path style="fill:none;stroke:#000000;stroke-width:0.264583" d="M 0,170 H 300" id="path15110"/>
      <path style="fill: none; stroke: rgb(0, 0, 0); stroke-width: 0.264583;" d="M 0 190 L 19.978 190 M 82.76 190 L 211.966 190 M 288.345 189.927 L 300 190" id="path15114"/>
    </g>
    <g id="g15178" style="display:none">
      <path style="fill:none;stroke:#000000;stroke-width:0.079375" d="M 5,0 V 200" id="path15118"/>
      <path style="fill:none;stroke:#000000;stroke-width:0.079375" d="M 15,0 V 200" id="path15120"/>
      <path style="fill:none;stroke:#000000;stroke-width:0.079375" d="M 25,0 V 200" id="path15122"/>
      <path style="fill:none;stroke:#000000;stroke-width:0.079375" d="M 35,0 V 200" id="path15124"/>
      <path style="fill:none;stroke:#000000;stroke-width:0.079375" d="M 45,0 V 200" id="path15126"/>
      <path style="fill:none;stroke:#000000;stroke-width:0.079375" d="M 55,0 V 200" id="path15128"/>
      <path style="fill:none;stroke:#000000;stroke-width:0.079375" d="M 65,0 V 200" id="path15130"/>
      <path style="fill:none;stroke:#000000;stroke-width:0.079375" d="M 75,0 V 200" id="path15132"/>
      <path style="fill:none;stroke:#000000;stroke-width:0.079375" d="M 85,0 V 200" id="path15134"/>
      <path style="fill:none;stroke:#000000;stroke-width:0.079375" d="M 95,0 V 200" id="path15136"/>
      <path style="fill:none;stroke:#000000;stroke-width:0.079375" d="M 105,0 V 200" id="path15138"/>
      <path style="fill:none;stroke:#000000;stroke-width:0.079375" d="M 115,0 V 200" id="path15140"/>
      <path style="fill:none;stroke:#000000;stroke-width:0.079375" d="M 125,0 V 200" id="path15142"/>
      <path style="fill:none;stroke:#000000;stroke-width:0.079375" d="M 135,0 V 200" id="path15144"/>
      <path style="fill:none;stroke:#000000;stroke-width:0.079375" d="M 145,0 V 200" id="path15146"/>
      <path style="fill:none;stroke:#000000;stroke-width:0.079375" d="M 155,0 V 200" id="path15148"/>
      <path style="fill:none;stroke:#000000;stroke-width:0.079375" d="M 165,0 V 200" id="path15150"/>
      <path style="fill:none;stroke:#000000;stroke-width:0.079375" d="M 175,0 V 200" id="path15152"/>
      <path style="fill:none;stroke:#000000;stroke-width:0.079375" d="M 185,0 V 200" id="path15154"/>
      <path style="fill:none;stroke:#000000;stroke-width:0.079375" d="M 195,0 V 200" id="path15156"/>
      <path style="fill:none;stroke:#000000;stroke-width:0.079375" d="M 205,0 V 200" id="path15158"/>
      <path style="fill:none;stroke:#000000;stroke-width:0.079375" d="M 215,0 V 200" id="path15160"/>
      <path style="fill:none;stroke:#000000;stroke-width:0.079375" d="M 225,0 V 200" id="path15162"/>
      <path style="fill:none;stroke:#000000;stroke-width:0.079375" d="M 235,0 V 200" id="path15164"/>
      <path style="fill:none;stroke:#000000;stroke-width:0.079375" d="M 245,0 V 200" id="path15166"/>
      <path style="fill:none;stroke:#000000;stroke-width:0.079375" d="M 255,0 V 200" id="path15168"/>
      <path style="fill:none;stroke:#000000;stroke-width:0.079375" d="M 265,0 V 200" id="path15170"/>
      <path style="fill:none;stroke:#000000;stroke-width:0.079375" d="M 275,0 V 200" id="path15172"/>
      <path style="fill:none;stroke:#000000;stroke-width:0.079375" d="M 285,0 V 200" id="path15174"/>
      <path style="fill:none;stroke:#000000;stroke-width:0.079375" d="M 295,0 V 200" id="path15176"/>
    </g>
    <g id="g15220" style="display:none">
      <path style="fill:none;stroke:#000000;stroke-width:0.079375" d="M 0,5 H 300" id="path15180"/>
      <path style="fill:none;stroke:#000000;stroke-width:0.079375" d="M 0,15 H 300" id="path15182"/>
      <path style="fill:none;stroke:#000000;stroke-width:0.079375" d="M 0,25 H 300" id="path15184"/>
      <path style="fill:none;stroke:#000000;stroke-width:0.079375" d="M 0,35 H 300" id="path15186"/>
      <path style="fill:none;stroke:#000000;stroke-width:0.079375" d="M 0,45 H 300" id="path15188"/>
      <path style="fill:none;stroke:#000000;stroke-width:0.079375" d="M 0,55 H 300" id="path15190"/>
      <path style="fill:none;stroke:#000000;stroke-width:0.079375" d="M 0,65 H 300" id="path15192"/>
      <path style="fill:none;stroke:#000000;stroke-width:0.079375" d="M 0,75 H 300" id="path15194"/>
      <path style="fill:none;stroke:#000000;stroke-width:0.079375" d="M 0,85 H 300" id="path15196"/>
      <path style="fill:none;stroke:#000000;stroke-width:0.079375" d="M 0,95 H 300" id="path15198"/>
      <path style="fill:none;stroke:#000000;stroke-width:0.079375" d="M 0,105 H 300" id="path15200"/>
      <path style="fill:none;stroke:#000000;stroke-width:0.079375" d="M 0,115 H 300" id="path15202"/>
      <path style="fill:none;stroke:#000000;stroke-width:0.079375" d="M 0,125 H 300" id="path15204"/>
      <path style="fill:none;stroke:#000000;stroke-width:0.079375" d="M 0,135 H 300" id="path15206"/>
      <path style="fill:none;stroke:#000000;stroke-width:0.079375" d="M 0,145 H 300" id="path15208"/>
      <path style="fill:none;stroke:#000000;stroke-width:0.079375" d="M 0,155 H 300" id="path15210"/>
      <path style="fill:none;stroke:#000000;stroke-width:0.079375" d="M 0,165 H 300" id="path15212"/>
      <path style="fill:none;stroke:#000000;stroke-width:0.079375" d="M 0,175 H 300" id="path15214"/>
      <path style="fill:none;stroke:#000000;stroke-width:0.079375" d="M 0,185 H 300" id="path15216"/>
      <path style="fill:none;stroke:#000000;stroke-width:0.079375" d="M 0,195 H 300" id="path15218"/>
    </g>
    <rect x="0" y="0" width="300" height="200" style="fill:none;stroke:#000000;stroke-width:3.67183e-17" id="rect15222"/>
    <rect width="12" height="200" style="stroke-linejoin: round; paint-order: fill; fill-opacity: 0.55; fill: rgba(151, 151, 151, 0.81);" x="-12"/>
    <rect width="12" height="200" style="stroke-linejoin: round; paint-order: fill; fill-opacity: 0.55; fill: rgba(151, 151, 151, 0.81);" x="300"/>
  </g>
  <g id="layer3" style="display:inline" transform="matrix(1, 0, 0, 1, -5, -2)">
    <rect style="fill:#ffffff;stroke-width:0.154526" id="rect527" width="0.78233474" height="10.43113" x="279.55826" y="186.86078"/>
    <g aria-label="J1" id="text611" style="font-size:9.813px;line-height:1.25;font-family:'Heiti SC';-inkscape-font-specification:'Heiti SC';display:inline;fill:#ffffff;stroke-width:0.229992">
      <path d="m 287.28671,193.04701 q 0,0.99111 -0.157,1.47195 -0.1472,0.48083 -0.58878,0.77522 -0.43178,0.28458 -0.94205,0.28458 -0.50046,0 -0.93224,-0.15701 -0.42196,-0.15701 -1.00092,-0.65747 l 0.4514,-0.66728 q 0.56915,0.41214 0.86354,0.54952 0.29439,0.13739 0.56915,0.13739 0.28458,0 0.52009,-0.20608 0.23551,-0.20607 0.29439,-0.5299 0.0687,-0.33364 0.0687,-1.03036 v -4.79856 h 0.85373 z" id="path3063"/>
      <path d="m 291.33947,195.40213 h -0.83411 v -6.35883 h -1.16774 l 0.51027,-0.82429 h 1.49158 z" id="path3065"/>
    </g>
    <g clip-path="url(#clipPath16)" id="g17284" transform="matrix(0.08049864,0,0,-0.08049864,199.09857,227.00105)" style="display:inline;fill:#ffffff">
      <g transform="translate(363.26,466.65)" id="g17250" style="fill:#ffffff">
        <path d="m 0,0 c -20.922,0 -37.883,-16.96 -37.883,-37.883 v -37.213 h 15.153 v 37.213 h -0.002 c 0,12.555 10.178,22.733 22.732,22.733 12.555,0 22.732,-10.178 22.732,-22.733 h -0.003 v -37.213 h 15.154 v 37.213 C 37.883,-16.96 20.922,0 0,0" fill="#3f3b3a" id="path17248" style="fill:#ffffff"/>
      </g>
      <g transform="translate(445.58,406.04)" id="g17254" style="fill:#ffffff">
        <path d="m 0,0 c -12.554,0 -22.73,10.177 -22.73,22.729 0,12.554 10.176,22.73 22.73,22.73 12.553,0 22.729,-10.176 22.729,-22.73 C 22.729,10.177 12.553,0 0,0 M 22.729,58.244 V 53.037 C 16.398,57.792 8.529,60.612 0,60.612 c -20.923,0 -37.883,-16.96 -37.883,-37.883 0,-20.922 16.96,-37.882 37.883,-37.882 8.529,0 16.398,2.82 22.729,7.576 v -6.906 h 15.154 v 72.727 z" fill="#3f3b3a" id="path17252" style="fill:#ffffff"/>
      </g>
      <g transform="translate(532.26,406.04)" id="g17258" style="fill:#ffffff">
        <path d="m 0,0 c -12.553,0 -22.729,10.177 -22.729,22.729 0,12.554 10.176,22.73 22.729,22.73 12.553,0 22.73,-10.176 22.73,-22.73 C 22.73,10.177 12.553,0 0,0 m 0,60.612 c -20.922,0 -37.882,-16.96 -37.882,-37.883 v -69.2 h 15.153 v 38.894 c 6.331,-4.756 14.2,-7.576 22.729,-7.576 20.922,0 37.883,16.96 37.883,37.882 0,20.923 -16.961,37.883 -37.883,37.883" fill="#3f3b3a" id="path17256" style="fill:#ffffff"/>
      </g>
      <g transform="translate(734.31,398.46)" id="g17262" style="fill:#ffffff">
        <path d="m 0,0 c -16.737,0 -30.306,13.568 -30.306,30.306 0,16.737 13.569,30.306 30.306,30.306 16.737,0 30.306,-13.569 30.306,-30.306 C 30.306,13.568 16.737,0 0,0 M 30.306,65.82 V 53.037 C 23.394,62.237 12.393,68.188 0,68.188 c -20.922,0 -37.883,-16.959 -37.883,-37.882 0,-20.922 16.961,-37.883 37.883,-37.883 12.393,0 23.394,5.952 30.306,15.152 V -6.907 h 7.577 V 65.82 Z" fill="#3f3b3a" id="path17260" style="fill:#ffffff"/>
      </g>
      <g transform="translate(691.21,436.81)" id="g17266" style="fill:#ffffff">
        <path d="m 0,0 c -0.25,16.522 -13.713,29.841 -30.294,29.841 -11.414,0 -21.35,-6.312 -26.519,-15.634 -5.168,9.322 -15.104,15.634 -26.517,15.634 -16.582,0 -30.045,-13.319 -30.295,-29.841 h -0.012 v -45.255 h 7.577 v 44.79 c 0,12.553 10.176,22.729 22.73,22.729 12.553,0 22.729,-10.176 22.729,-22.729 v -44.79 h 7.577 v 44.79 c 0,12.553 10.176,22.729 22.73,22.729 12.553,0 22.73,-10.176 22.73,-22.729 v -44.79 H 0.012 V 0 Z" fill="#3f3b3a" id="path17264" style="fill:#ffffff"/>
      </g>
      <g transform="translate(856.21,455.02)" id="g17270" style="fill:#ffffff">
        <path d="M 0,0 C 13.382,7.726 30.204,4.078 39.292,-7.935 L -12.777,-37.997 C -18.635,-24.118 -13.384,-7.727 0,0 m 45.088,-30.903 c -1.362,-8.745 -6.52,-16.819 -14.782,-21.589 -13.384,-7.727 -30.203,-4.079 -39.294,7.934 L 49.691,-10.68 C 49.175,-9.54 48.6,-8.413 47.96,-7.305 37.499,10.814 14.331,17.022 -3.789,6.561 -21.907,-3.9 -28.115,-27.069 -17.655,-45.188 c 10.461,-18.119 33.631,-24.327 51.749,-13.865 12.12,6.997 18.901,19.681 18.937,32.735 z" fill="#3f3b3a" id="path17268" style="fill:#ffffff"/>
      </g>
      <g transform="translate(839.22,466.66)" id="g17274" style="fill:#ffffff">
        <path d="m 0,0 h -10.716 l -37.79,-37.79 v 70.377 h -7.577 v -107.69 h 7.577 v 26.598 l 5.422,5.421 32.02,-32.019 H -0.35 l -37.376,37.376 z" fill="#3f3b3a" id="path17272" style="fill:#ffffff"/>
      </g>
      <g transform="translate(917.36,428.77)" id="g17278" style="fill:#ffffff">
        <path d="m 0,0 c 0,-0.02 0.003,-0.039 0.003,-0.059 v -37.154 h 7.575 v 37.154 h 10e-4 c 0,0.02 -10e-4,0.039 -10e-4,0.059 0,16.738 13.568,30.306 30.306,30.306 v 7.577 C 16.962,37.883 0,20.923 0,0" fill="#3f3b3a" id="path17276" style="fill:#ffffff"/>
      </g>
      <g transform="translate(280.65,437.38)" id="g17282" style="fill:#ffffff">
        <path d="m 0,0 c -6.641,1.159 -10.845,4.978 -10.218,8.245 0.893,4.658 8.079,5.869 17.803,6.172 12.995,0.405 23.732,-4.078 23.732,-4.078 0,0 3.992,9.327 5.511,12.872 -11.468,5.271 -23.392,6.442 -29.098,6.442 -19.827,0 -35.061,-10.557 -35.061,-22.404 0,-12.88 15.262,-21.176 29.965,-22.574 12.015,-1.144 19.391,-5.593 18.967,-9.818 -0.374,-3.73 -6.558,-5.581 -13.394,-5.903 -5.915,-0.279 -17.31,-0.045 -29.296,4.451 -0.87,-2.064 -4.12,-9.767 -5.504,-13.048 3.022,-1.511 18.332,-8.378 38.223,-6.51 18.771,1.762 29.949,14.058 28.603,24.009 C 37.597,-2.648 11.585,-2.022 0,0" fill="#3f3b3a" id="path17280" style="fill:#ffffff"/>
      </g>
    </g>
  </g>
  <g id="layer1" style="display: inline;" transform="matrix(0.799391, 0, 0, 0.799391, 10.964681, 32.607395)">
    <g transform="matrix(1, 0, 0, 1, 2.806656, 0)">
      <path style="fill:none;stroke:#ffff00;stroke-width:0.40005;stroke-linecap:round;stroke-linejoin:miter;stroke-miterlimit:4;stroke-dasharray:none;stroke-opacity:1" d="M 44.861 190.949 C 44.254 191.787 43.647 192.625 43.644 193.395 C 43.641 194.166 44.242 194.87 44.412 195.408 C 44.582 195.945 44.321 196.315 44.06 196.685" id="path1396"/>
      <path style="fill:none;fill-opacity:1;stroke:#ffff00;stroke-width:0.264999;stroke-linecap:round;stroke-linejoin:miter;stroke-miterlimit:4;stroke-dasharray:none;stroke-opacity:1" id="path1349-1" d="M 37.268 199.565 L 45.847 184.704 L 54.427 199.565 L 37.268 199.565 Z"/>
      <path style="fill:none;stroke:#ffff00;stroke-width:0.40005;stroke-linecap:round;stroke-linejoin:miter;stroke-miterlimit:4;stroke-dasharray:none;stroke-opacity:1" d="M 46.062 190.959 C 45.455 191.797 44.848 192.634 44.845 193.405 C 44.842 194.176 45.443 194.88 45.613 195.417 C 45.782 195.954 45.521 196.325 45.26 196.695" id="path1396-6"/>
      <path style="fill:none;stroke:#ffff00;stroke-width:0.40005;stroke-linecap:round;stroke-linejoin:miter;stroke-miterlimit:4;stroke-dasharray:none;stroke-opacity:1" d="M 47.464 190.941 C 46.857 191.778 46.25 192.616 46.247 193.387 C 46.244 194.158 46.845 194.862 47.015 195.399 C 47.184 195.936 46.923 196.306 46.663 196.677" id="path1396-7"/>
      <path style="fill:none;stroke:#ffff00;stroke-width:0.40005;stroke-linecap:round;stroke-linejoin:miter;stroke-miterlimit:4;stroke-dasharray:none;stroke-opacity:1" d="M 41.874 197.723 L 49.522 197.723" id="path1428"/>
    </g>
    <g transform="matrix(1, 0, 0, 1, -0.501297, 0)">
      <path style="fill:none;fill-opacity:1;stroke:#ffff00;stroke-width:0.264999;stroke-linecap:round;stroke-linejoin:miter;stroke-miterlimit:4;stroke-dasharray:none;stroke-opacity:1" id="path1349-1-3" d="M 65.595 199.565 L 74.174 184.704 L 82.754 199.565 L 65.595 199.565 Z"/>
      <path style="fill:none;stroke:#ffff00;stroke-width:0.293709px;stroke-linecap:butt;stroke-linejoin:miter;stroke-opacity:1" d="M 73.498 193.31 C 73.299 193.728 73.101 194.146 72.879 194.096 C 72.657 194.045 72.41 193.525 72.163 193.274 C 71.916 193.023 71.669 193.042 71.496 193.125 C 71.323 193.209 71.224 193.357 71.282 193.487 C 71.34 193.617 71.554 193.729 71.706 193.91 C 71.858 194.091 71.949 194.342 72.056 194.871 C 72.163 195.4 72.286 196.208 72.809 196.663 C 73.332 197.118 74.253 197.22 74.852 197.008 C 75.45 196.796 75.726 196.27 76.002 195.743" id="path1434"/>
      <path style="fill:none;stroke:#ffff00;stroke-width:0.293709px;stroke-linecap:butt;stroke-linejoin:miter;stroke-opacity:1" d="M 76.198 195.312 C 76.517 194.833 76.837 194.353 76.959 194.004 C 77.082 193.655 77.008 193.437 76.878 193.363 C 76.747 193.289 76.56 193.36 76.361 193.58 C 76.162 193.8 75.952 194.168 75.742 194.536" id="path1442"/>
      <path style="fill:none;stroke:#ffff00;stroke-width:0.293709px;stroke-linecap:butt;stroke-linejoin:miter;stroke-opacity:1" d="M 75.626 194.751 C 76.053 194.046 76.48 193.34 76.596 192.934 C 76.712 192.527 76.516 192.419 76.359 192.435 C 76.202 192.45 76.085 192.589 75.892 192.912 C 75.699 193.235 75.431 193.742 75.162 194.248" id="path1442-1"/>
      <path style="fill:none;stroke:#ffff00;stroke-width:0.322939px;stroke-linecap:butt;stroke-linejoin:miter;stroke-opacity:1" d="M 75.162 194.248 C 75.644 193.39 76.126 192.531 76.246 192.022 C 76.366 191.514 76.124 191.357 75.911 191.409 C 75.699 191.46 75.517 191.721 75.303 192.119 C 75.088 192.518 74.84 193.053 74.592 193.588" id="path1442-4"/>
      <path style="fill:none;stroke:#ffff00;stroke-width:0.293709px;stroke-linecap:butt;stroke-linejoin:miter;stroke-opacity:1" d="M 74.592 193.588 C 74.885 192.954 75.178 192.32 75.273 191.907 C 75.368 191.494 75.265 191.303 75.111 191.25 C 74.956 191.197 74.752 191.282 74.528 191.573 C 74.305 191.863 74.062 192.357 73.82 192.852" id="path1487"/>
      <path style="fill:none;stroke:#ffff00;stroke-width:0.340061;stroke-linecap:round;stroke-linejoin:miter;stroke-miterlimit:4;stroke-dasharray:none;stroke-opacity:1" d="M 76.762 196.165 L 73.022 192.407" id="path1491"/>
    </g>
    <g aria-label="!" id="text1642" style="font-style:normal;font-variant:normal;font-weight:normal;font-stretch:normal;font-size:15.875px;line-height:1.25;font-family:Amiri;-inkscape-font-specification:Amiri;fill:#ffff00;fill-opacity:1;stroke:none;stroke-width:0.265;stroke-miterlimit:4;stroke-dasharray:none" transform="matrix(0.77081, 0, 0, 0.77081, -6.854663, -62.159168)">
      <path style="fill:none;fill-opacity:1;stroke:#ffff00;stroke-width:0.264999;stroke-linecap:round;stroke-linejoin:miter;stroke-miterlimit:4;stroke-dasharray:none;stroke-opacity:1" id="path1349" d="M 28.425 339.544 L 39.556 320.265 L 50.687 339.544 L 28.425 339.544 Z"/>
      <path d="m 38.868313,336.48727 q -0.255799,-0.26355 -0.255799,-0.61236 0,-0.34882 0.255799,-0.58911 0.26355,-0.24805 0.612366,-0.24805 0.348815,0 0.589111,0.24805 0.248047,0.24029 0.248047,0.58911 0,0.34881 -0.248047,0.61236 -0.240296,0.2558 -0.589111,0.2558 -0.348816,0 -0.612366,-0.2558 z m 0.116272,-10.20868 q 0.217041,-0.27905 0.558105,-0.27905 0.341065,0 0.511597,0.27905 0.170532,0.27906 0.170532,0.62012 0,1.65882 -0.542602,7.00733 -0.09302,0.18603 -0.248047,0.20153 -0.147278,-0.062 -0.201538,-0.17053 -0.465088,-5.34851 -0.465088,-7.03833 0,-0.34106 0.217041,-0.62012 z" style="font-style:normal;font-variant:normal;font-weight:normal;font-stretch:normal;font-size:15.875px;font-family:Amiri;-inkscape-font-specification:Amiri;fill:#ffff00;fill-opacity:1;stroke-width:0.265;stroke-miterlimit:4;stroke-dasharray:none" id="path1644"/>
    </g>
  </g>
</svg>